# MagicaVoxel @ Ephtracy

# group
o 

# material
mtllib key.mtl
usemtl palette

# normals
vn -1 0 0
vn 1 0 0
vn 0 0 1
vn 0 0 -1
vn 0 -1 0
vn 0 1 0

# texcoords
vt 0.478516 0.5
vt 0.482422 0.5
vt 0.494141 0.5

# verts
v -0.2 2.7 -0.5
v -0.2 2.7 -0.6
v -0.2 2.8 -0.5
v -0.2 2.8 -0.6
v -0.0999999 0.4 -0.5
v -0.0999999 0.4 -0.6
v -0.0999999 0.5 -0.5
v -0.0999999 0.5 -0.6
v -0.0999999 0.9 -0.5
v -0.0999999 0.9 -0.6
v -0.0999999 1 -0.5
v -0.0999999 1 -0.6
v -0.0999999 1.4 -0.5
v -0.0999999 1.4 -0.6
v -0.0999999 1.5 -0.5
v -0.0999999 1.5 -0.6
v -0.0999999 2.6 -0.5
v -0.0999999 2.6 -0.6
v -0.0999999 2.7 -0.5
v -0.0999999 2.7 -0.6
v -0.0999999 2.8 -0.5
v -0.0999999 2.8 -0.6
v -0.0999999 2.9 -0.5
v -0.0999999 2.9 -0.6
v 5.96046e-08 2.5 -0.5
v 5.96046e-08 2.5 -0.6
v 5.96046e-08 2.6 -0.5
v 5.96046e-08 2.6 -0.6
v 5.96046e-08 2.9 -0.5
v 5.96046e-08 2.9 -0.6
v 5.96046e-08 3 -0.5
v 5.96046e-08 3 -0.6
v 0.1 2.4 -0.5
v 0.1 2.4 -0.6
v 0.1 2.5 -0.5
v 0.1 2.5 -0.6
v 0.1 3 -0.5
v 0.1 3 -0.6
v 0.1 3.1 -0.5
v 0.1 3.1 -0.6
v 0.2 2.3 -0.5
v 0.2 2.3 -0.6
v 0.2 2.4 -0.5
v 0.2 2.4 -0.6
v 0.2 2.8 -0.5
v 0.2 2.8 -0.6
v 0.2 2.9 -0.5
v 0.2 2.9 -0.6
v 0.2 3.1 -0.5
v 0.2 3.1 -0.6
v 0.2 3.2 -0.5
v 0.2 3.2 -0.6
v 0.3 2.2 -0.5
v 0.3 2.2 -0.6
v 0.3 2.3 -0.5
v 0.3 2.3 -0.6
v 0.3 2.5 -0.5
v 0.3 2.5 -0.6
v 0.3 2.6 -0.5
v 0.3 2.6 -0.6
v 0.3 2.7 -0.5
v 0.3 2.7 -0.6
v 0.3 2.8 -0.5
v 0.3 2.8 -0.6
v 0.3 3.2 -0.5
v 0.3 3.2 -0.6
v 0.3 3.3 -0.5
v 0.3 3.3 -0.6
v 0.4 0 -0.5
v 0.4 0 -0.6
v 0.4 0.4 -0.5
v 0.4 0.4 -0.6
v 0.4 0.5 -0.5
v 0.4 0.5 -0.6
v 0.4 0.9 -0.5
v 0.4 0.9 -0.6
v 0.4 1 -0.5
v 0.4 1 -0.6
v 0.4 1.4 -0.5
v 0.4 1.4 -0.6
v 0.4 1.5 -0.5
v 0.4 1.5 -0.6
v 0.4 2.2 -0.5
v 0.4 2.2 -0.6
v 0.4 2.6 -0.5
v 0.4 2.6 -0.6
v 0.4 2.7 -0.5
v 0.4 2.7 -0.6
v 0.5 2.5 -0.5
v 0.5 2.5 -0.6
v 0.5 2.6 -0.5
v 0.5 2.6 -0.6
v 0.5 2.7 -0.5
v 0.5 2.7 -0.6
v 0.5 2.8 -0.5
v 0.5 2.8 -0.6
v 0.6 2.3 -0.5
v 0.6 2.3 -0.6
v 0.6 2.4 -0.5
v 0.6 2.4 -0.6
v 0.6 2.5 -0.5
v 0.6 2.5 -0.6
v 0.6 2.8 -0.5
v 0.6 2.8 -0.6
v 0.6 2.9 -0.5
v 0.6 2.9 -0.6
v 0.6 3.1 -0.5
v 0.6 3.1 -0.6
v 0.6 3.2 -0.5
v 0.6 3.2 -0.6
v 0.7 2.9 -0.5
v 0.7 2.9 -0.6
v 0.7 3 -0.5
v 0.7 3 -0.6
v 0.7 3.1 -0.5
v 0.7 3.1 -0.6
v 0.8 2.5 -0.5
v 0.8 2.5 -0.6
v 0.8 2.6 -0.5
v 0.8 2.6 -0.6
v 0.9 2.6 -0.5
v 0.9 2.6 -0.6
v 0.9 2.7 -0.5
v 0.9 2.7 -0.6
v 0.9 2.8 -0.5
v 0.9 2.8 -0.6
v 0.9 2.9 -0.5
v 0.9 2.9 -0.6
v 1 2.7 -0.5
v 1 2.7 -0.6
v 1 2.8 -0.5
v 1 2.8 -0.6
v -0.0999999 2.7 -0.5
v -0.0999999 2.7 -0.6
v -0.0999999 2.8 -0.5
v -0.0999999 2.8 -0.6
v 5.96046e-08 2.6 -0.5
v 5.96046e-08 2.6 -0.6
v 5.96046e-08 2.7 -0.5
v 5.96046e-08 2.7 -0.6
v 5.96046e-08 2.8 -0.5
v 5.96046e-08 2.8 -0.6
v 5.96046e-08 2.9 -0.5
v 5.96046e-08 2.9 -0.6
v 0.1 2.5 -0.5
v 0.1 2.5 -0.6
v 0.1 2.6 -0.5
v 0.1 2.6 -0.6
v 0.2 2.9 -0.5
v 0.2 2.9 -0.6
v 0.2 3 -0.5
v 0.2 3 -0.6
v 0.2 3.1 -0.5
v 0.2 3.1 -0.6
v 0.3 2.3 -0.5
v 0.3 2.3 -0.6
v 0.3 2.4 -0.5
v 0.3 2.4 -0.6
v 0.3 2.5 -0.5
v 0.3 2.5 -0.6
v 0.3 2.8 -0.5
v 0.3 2.8 -0.6
v 0.3 2.9 -0.5
v 0.3 2.9 -0.6
v 0.3 3.1 -0.5
v 0.3 3.1 -0.6
v 0.3 3.2 -0.5
v 0.3 3.2 -0.6
v 0.4 2.5 -0.5
v 0.4 2.5 -0.6
v 0.4 2.6 -0.5
v 0.4 2.6 -0.6
v 0.4 2.7 -0.5
v 0.4 2.7 -0.6
v 0.4 2.8 -0.5
v 0.4 2.8 -0.6
v 0.5 0 -0.5
v 0.5 0 -0.6
v 0.5 2.2 -0.5
v 0.5 2.2 -0.6
v 0.5 2.6 -0.5
v 0.5 2.6 -0.6
v 0.5 2.7 -0.5
v 0.5 2.7 -0.6
v 0.6 2.2 -0.5
v 0.6 2.2 -0.6
v 0.6 2.3 -0.5
v 0.6 2.3 -0.6
v 0.6 2.5 -0.5
v 0.6 2.5 -0.6
v 0.6 2.6 -0.5
v 0.6 2.6 -0.6
v 0.6 2.7 -0.5
v 0.6 2.7 -0.6
v 0.6 2.8 -0.5
v 0.6 2.8 -0.6
v 0.6 3.2 -0.5
v 0.6 3.2 -0.6
v 0.6 3.3 -0.5
v 0.6 3.3 -0.6
v 0.7 2.3 -0.5
v 0.7 2.3 -0.6
v 0.7 2.4 -0.5
v 0.7 2.4 -0.6
v 0.7 2.8 -0.5
v 0.7 2.8 -0.6
v 0.7 2.9 -0.5
v 0.7 2.9 -0.6
v 0.7 3.1 -0.5
v 0.7 3.1 -0.6
v 0.7 3.2 -0.5
v 0.7 3.2 -0.6
v 0.8 2.4 -0.5
v 0.8 2.4 -0.6
v 0.8 2.5 -0.5
v 0.8 2.5 -0.6
v 0.8 3 -0.5
v 0.8 3 -0.6
v 0.8 3.1 -0.5
v 0.8 3.1 -0.6
v 0.9 2.5 -0.5
v 0.9 2.5 -0.6
v 0.9 2.6 -0.5
v 0.9 2.6 -0.6
v 0.9 2.9 -0.5
v 0.9 2.9 -0.6
v 0.9 3 -0.5
v 0.9 3 -0.6
v 1 2.6 -0.5
v 1 2.6 -0.6
v 1 2.7 -0.5
v 1 2.7 -0.6
v 1 2.8 -0.5
v 1 2.8 -0.6
v 1 2.9 -0.5
v 1 2.9 -0.6
v 1.1 2.7 -0.5
v 1.1 2.7 -0.6
v 1.1 2.8 -0.5
v 1.1 2.8 -0.6
v -0.2 2.7 -0.5
v -0.2 2.8 -0.5
v -0.0999999 0.4 -0.5
v -0.0999999 0.5 -0.5
v -0.0999999 0.9 -0.5
v -0.0999999 1 -0.5
v -0.0999999 1.4 -0.5
v -0.0999999 1.5 -0.5
v -0.0999999 2.6 -0.5
v -0.0999999 2.7 -0.5
v -0.0999999 2.8 -0.5
v -0.0999999 2.9 -0.5
v 5.96046e-08 2.5 -0.5
v 5.96046e-08 2.6 -0.5
v 5.96046e-08 2.7 -0.5
v 5.96046e-08 2.8 -0.5
v 5.96046e-08 2.9 -0.5
v 5.96046e-08 3 -0.5
v 0.1 2.4 -0.5
v 0.1 2.5 -0.5
v 0.1 2.6 -0.5
v 0.1 2.9 -0.5
v 0.1 3 -0.5
v 0.1 3.1 -0.5
v 0.2 2.3 -0.5
v 0.2 2.4 -0.5
v 0.2 2.5 -0.5
v 0.2 2.8 -0.5
v 0.2 2.9 -0.5
v 0.2 3 -0.5
v 0.2 3.1 -0.5
v 0.2 3.2 -0.5
v 0.3 2.2 -0.5
v 0.3 2.3 -0.5
v 0.3 2.4 -0.5
v 0.3 2.5 -0.5
v 0.3 2.6 -0.5
v 0.3 2.7 -0.5
v 0.3 2.8 -0.5
v 0.3 2.9 -0.5
v 0.3 3.1 -0.5
v 0.3 3.2 -0.5
v 0.3 3.3 -0.5
v 0.4 0 -0.5
v 0.4 0.4 -0.5
v 0.4 0.5 -0.5
v 0.4 0.9 -0.5
v 0.4 1 -0.5
v 0.4 1.4 -0.5
v 0.4 1.5 -0.5
v 0.4 2.2 -0.5
v 0.4 2.5 -0.5
v 0.4 2.6 -0.5
v 0.4 2.7 -0.5
v 0.4 2.8 -0.5
v 0.5 0 -0.5
v 0.5 2.2 -0.5
v 0.5 2.5 -0.5
v 0.5 2.6 -0.5
v 0.5 2.7 -0.5
v 0.5 2.8 -0.5
v 0.6 2.2 -0.5
v 0.6 2.3 -0.5
v 0.6 2.4 -0.5
v 0.6 2.5 -0.5
v 0.6 2.6 -0.5
v 0.6 2.7 -0.5
v 0.6 2.8 -0.5
v 0.6 2.9 -0.5
v 0.6 3.1 -0.5
v 0.6 3.2 -0.5
v 0.6 3.3 -0.5
v 0.7 2.3 -0.5
v 0.7 2.4 -0.5
v 0.7 2.5 -0.5
v 0.7 2.8 -0.5
v 0.7 2.9 -0.5
v 0.7 3 -0.5
v 0.7 3.1 -0.5
v 0.7 3.2 -0.5
v 0.8 2.4 -0.5
v 0.8 2.5 -0.5
v 0.8 2.6 -0.5
v 0.8 2.9 -0.5
v 0.8 3 -0.5
v 0.8 3.1 -0.5
v 0.9 2.5 -0.5
v 0.9 2.6 -0.5
v 0.9 2.7 -0.5
v 0.9 2.8 -0.5
v 0.9 2.9 -0.5
v 0.9 3 -0.5
v 1 2.6 -0.5
v 1 2.7 -0.5
v 1 2.8 -0.5
v 1 2.9 -0.5
v 1.1 2.7 -0.5
v 1.1 2.8 -0.5
v -0.2 2.7 -0.6
v -0.2 2.8 -0.6
v -0.0999999 0.4 -0.6
v -0.0999999 0.5 -0.6
v -0.0999999 0.9 -0.6
v -0.0999999 1 -0.6
v -0.0999999 1.4 -0.6
v -0.0999999 1.5 -0.6
v -0.0999999 2.6 -0.6
v -0.0999999 2.7 -0.6
v -0.0999999 2.8 -0.6
v -0.0999999 2.9 -0.6
v 5.96046e-08 2.5 -0.6
v 5.96046e-08 2.6 -0.6
v 5.96046e-08 2.7 -0.6
v 5.96046e-08 2.8 -0.6
v 5.96046e-08 2.9 -0.6
v 5.96046e-08 3 -0.6
v 0.1 2.4 -0.6
v 0.1 2.5 -0.6
v 0.1 2.6 -0.6
v 0.1 2.9 -0.6
v 0.1 3 -0.6
v 0.1 3.1 -0.6
v 0.2 2.3 -0.6
v 0.2 2.4 -0.6
v 0.2 2.5 -0.6
v 0.2 2.8 -0.6
v 0.2 2.9 -0.6
v 0.2 3 -0.6
v 0.2 3.1 -0.6
v 0.2 3.2 -0.6
v 0.3 2.2 -0.6
v 0.3 2.3 -0.6
v 0.3 2.4 -0.6
v 0.3 2.5 -0.6
v 0.3 2.6 -0.6
v 0.3 2.7 -0.6
v 0.3 2.8 -0.6
v 0.3 2.9 -0.6
v 0.3 3.1 -0.6
v 0.3 3.2 -0.6
v 0.3 3.3 -0.6
v 0.4 0 -0.6
v 0.4 0.4 -0.6
v 0.4 0.5 -0.6
v 0.4 0.9 -0.6
v 0.4 1 -0.6
v 0.4 1.4 -0.6
v 0.4 1.5 -0.6
v 0.4 2.2 -0.6
v 0.4 2.5 -0.6
v 0.4 2.6 -0.6
v 0.4 2.7 -0.6
v 0.4 2.8 -0.6
v 0.5 0 -0.6
v 0.5 2.2 -0.6
v 0.5 2.5 -0.6
v 0.5 2.6 -0.6
v 0.5 2.7 -0.6
v 0.5 2.8 -0.6
v 0.6 2.2 -0.6
v 0.6 2.3 -0.6
v 0.6 2.4 -0.6
v 0.6 2.5 -0.6
v 0.6 2.6 -0.6
v 0.6 2.7 -0.6
v 0.6 2.8 -0.6
v 0.6 2.9 -0.6
v 0.6 3.1 -0.6
v 0.6 3.2 -0.6
v 0.6 3.3 -0.6
v 0.7 2.3 -0.6
v 0.7 2.4 -0.6
v 0.7 2.5 -0.6
v 0.7 2.8 -0.6
v 0.7 2.9 -0.6
v 0.7 3 -0.6
v 0.7 3.1 -0.6
v 0.7 3.2 -0.6
v 0.8 2.4 -0.6
v 0.8 2.5 -0.6
v 0.8 2.6 -0.6
v 0.8 2.9 -0.6
v 0.8 3 -0.6
v 0.8 3.1 -0.6
v 0.9 2.5 -0.6
v 0.9 2.6 -0.6
v 0.9 2.7 -0.6
v 0.9 2.8 -0.6
v 0.9 2.9 -0.6
v 0.9 3 -0.6
v 1 2.6 -0.6
v 1 2.7 -0.6
v 1 2.8 -0.6
v 1 2.9 -0.6
v 1.1 2.7 -0.6
v 1.1 2.8 -0.6
v 0.4 0 -0.5
v 0.5 0 -0.5
v 0.4 0 -0.6
v 0.5 0 -0.6
v -0.0999999 0.4 -0.5
v 0.4 0.4 -0.5
v -0.0999999 0.4 -0.6
v 0.4 0.4 -0.6
v -0.0999999 0.9 -0.5
v 0.4 0.9 -0.5
v -0.0999999 0.9 -0.6
v 0.4 0.9 -0.6
v -0.0999999 1.4 -0.5
v 0.4 1.4 -0.5
v -0.0999999 1.4 -0.6
v 0.4 1.4 -0.6
v 0.3 2.2 -0.5
v 0.4 2.2 -0.5
v 0.5 2.2 -0.5
v 0.6 2.2 -0.5
v 0.3 2.2 -0.6
v 0.4 2.2 -0.6
v 0.5 2.2 -0.6
v 0.6 2.2 -0.6
v 0.2 2.3 -0.5
v 0.3 2.3 -0.5
v 0.6 2.3 -0.5
v 0.7 2.3 -0.5
v 0.2 2.3 -0.6
v 0.3 2.3 -0.6
v 0.6 2.3 -0.6
v 0.7 2.3 -0.6
v 0.1 2.4 -0.5
v 0.2 2.4 -0.5
v 0.7 2.4 -0.5
v 0.8 2.4 -0.5
v 0.1 2.4 -0.6
v 0.2 2.4 -0.6
v 0.7 2.4 -0.6
v 0.8 2.4 -0.6
v 5.96046e-08 2.5 -0.5
v 0.1 2.5 -0.5
v 0.3 2.5 -0.5
v 0.4 2.5 -0.5
v 0.5 2.5 -0.5
v 0.6 2.5 -0.5
v 0.8 2.5 -0.5
v 0.9 2.5 -0.5
v 5.96046e-08 2.5 -0.6
v 0.1 2.5 -0.6
v 0.3 2.5 -0.6
v 0.4 2.5 -0.6
v 0.5 2.5 -0.6
v 0.6 2.5 -0.6
v 0.8 2.5 -0.6
v 0.9 2.5 -0.6
v -0.0999999 2.6 -0.5
v 5.96046e-08 2.6 -0.5
v 0.4 2.6 -0.5
v 0.5 2.6 -0.5
v 0.9 2.6 -0.5
v 1 2.6 -0.5
v -0.0999999 2.6 -0.6
v 5.96046e-08 2.6 -0.6
v 0.4 2.6 -0.6
v 0.5 2.6 -0.6
v 0.9 2.6 -0.6
v 1 2.6 -0.6
v -0.2 2.7 -0.5
v -0.0999999 2.7 -0.5
v 0.3 2.7 -0.5
v 0.4 2.7 -0.5
v 0.5 2.7 -0.5
v 0.6 2.7 -0.5
v 1 2.7 -0.5
v 1.1 2.7 -0.5
v -0.2 2.7 -0.6
v -0.0999999 2.7 -0.6
v 0.3 2.7 -0.6
v 0.4 2.7 -0.6
v 0.5 2.7 -0.6
v 0.6 2.7 -0.6
v 1 2.7 -0.6
v 1.1 2.7 -0.6
v -0.0999999 2.8 -0.5
v 5.96046e-08 2.8 -0.5
v 0.2 2.8 -0.5
v 0.3 2.8 -0.5
v 0.6 2.8 -0.5
v 0.7 2.8 -0.5
v 0.9 2.8 -0.5
v 1 2.8 -0.5
v -0.0999999 2.8 -0.6
v 5.96046e-08 2.8 -0.6
v 0.2 2.8 -0.6
v 0.3 2.8 -0.6
v 0.6 2.8 -0.6
v 0.7 2.8 -0.6
v 0.9 2.8 -0.6
v 1 2.8 -0.6
v 5.96046e-08 2.9 -0.5
v 0.1 2.9 -0.5
v 0.2 2.9 -0.5
v 0.7 2.9 -0.5
v 0.8 2.9 -0.5
v 0.9 2.9 -0.5
v 5.96046e-08 2.9 -0.6
v 0.1 2.9 -0.6
v 0.2 2.9 -0.6
v 0.7 2.9 -0.6
v 0.8 2.9 -0.6
v 0.9 2.9 -0.6
v 0.2 3.1 -0.5
v 0.3 3.1 -0.5
v 0.6 3.1 -0.5
v 0.7 3.1 -0.5
v 0.2 3.1 -0.6
v 0.3 3.1 -0.6
v 0.6 3.1 -0.6
v 0.7 3.1 -0.6
v 0.3 3.2 -0.5
v 0.6 3.2 -0.5
v 0.3 3.2 -0.6
v 0.6 3.2 -0.6
v -0.0999999 0.5 -0.5
v 0.4 0.5 -0.5
v -0.0999999 0.5 -0.6
v 0.4 0.5 -0.6
v -0.0999999 1 -0.5
v 0.4 1 -0.5
v -0.0999999 1 -0.6
v 0.4 1 -0.6
v -0.0999999 1.5 -0.5
v 0.4 1.5 -0.5
v -0.0999999 1.5 -0.6
v 0.4 1.5 -0.6
v 0.3 2.3 -0.5
v 0.6 2.3 -0.5
v 0.3 2.3 -0.6
v 0.6 2.3 -0.6
v 0.1 2.5 -0.5
v 0.2 2.5 -0.5
v 0.3 2.5 -0.5
v 0.6 2.5 -0.5
v 0.7 2.5 -0.5
v 0.8 2.5 -0.5
v 0.1 2.5 -0.6
v 0.2 2.5 -0.6
v 0.3 2.5 -0.6
v 0.6 2.5 -0.6
v 0.7 2.5 -0.6
v 0.8 2.5 -0.6
v 5.96046e-08 2.6 -0.5
v 0.1 2.6 -0.5
v 0.3 2.6 -0.5
v 0.4 2.6 -0.5
v 0.5 2.6 -0.5
v 0.6 2.6 -0.5
v 0.8 2.6 -0.5
v 0.9 2.6 -0.5
v 5.96046e-08 2.6 -0.6
v 0.1 2.6 -0.6
v 0.3 2.6 -0.6
v 0.4 2.6 -0.6
v 0.5 2.6 -0.6
v 0.6 2.6 -0.6
v 0.8 2.6 -0.6
v 0.9 2.6 -0.6
v -0.0999999 2.7 -0.5
v 5.96046e-08 2.7 -0.5
v 0.4 2.7 -0.5
v 0.5 2.7 -0.5
v 0.9 2.7 -0.5
v 1 2.7 -0.5
v -0.0999999 2.7 -0.6
v 5.96046e-08 2.7 -0.6
v 0.4 2.7 -0.6
v 0.5 2.7 -0.6
v 0.9 2.7 -0.6
v 1 2.7 -0.6
v -0.2 2.8 -0.5
v -0.0999999 2.8 -0.5
v 0.3 2.8 -0.5
v 0.4 2.8 -0.5
v 0.5 2.8 -0.5
v 0.6 2.8 -0.5
v 1 2.8 -0.5
v 1.1 2.8 -0.5
v -0.2 2.8 -0.6
v -0.0999999 2.8 -0.6
v 0.3 2.8 -0.6
v 0.4 2.8 -0.6
v 0.5 2.8 -0.6
v 0.6 2.8 -0.6
v 1 2.8 -0.6
v 1.1 2.8 -0.6
v -0.0999999 2.9 -0.5
v 5.96046e-08 2.9 -0.5
v 0.2 2.9 -0.5
v 0.3 2.9 -0.5
v 0.6 2.9 -0.5
v 0.7 2.9 -0.5
v 0.9 2.9 -0.5
v 1 2.9 -0.5
v -0.0999999 2.9 -0.6
v 5.96046e-08 2.9 -0.6
v 0.2 2.9 -0.6
v 0.3 2.9 -0.6
v 0.6 2.9 -0.6
v 0.7 2.9 -0.6
v 0.9 2.9 -0.6
v 1 2.9 -0.6
v 5.96046e-08 3 -0.5
v 0.1 3 -0.5
v 0.8 3 -0.5
v 0.9 3 -0.5
v 5.96046e-08 3 -0.6
v 0.1 3 -0.6
v 0.8 3 -0.6
v 0.9 3 -0.6
v 0.1 3.1 -0.5
v 0.2 3.1 -0.5
v 0.7 3.1 -0.5
v 0.8 3.1 -0.5
v 0.1 3.1 -0.6
v 0.2 3.1 -0.6
v 0.7 3.1 -0.6
v 0.8 3.1 -0.6
v 0.2 3.2 -0.5
v 0.3 3.2 -0.5
v 0.6 3.2 -0.5
v 0.7 3.2 -0.5
v 0.2 3.2 -0.6
v 0.3 3.2 -0.6
v 0.6 3.2 -0.6
v 0.7 3.2 -0.6
v 0.3 3.3 -0.5
v 0.6 3.3 -0.5
v 0.3 3.3 -0.6
v 0.6 3.3 -0.6

# faces
f 3/3/1 2/3/1 1/3/1
f 4/3/1 2/3/1 3/3/1
f 7/2/1 6/2/1 5/2/1
f 8/2/1 6/2/1 7/2/1
f 11/2/1 10/2/1 9/2/1
f 12/2/1 10/2/1 11/2/1
f 15/2/1 14/2/1 13/2/1
f 16/2/1 14/2/1 15/2/1
f 19/3/1 18/3/1 17/3/1
f 20/3/1 18/3/1 19/3/1
f 23/3/1 22/3/1 21/3/1
f 24/3/1 22/3/1 23/3/1
f 27/3/1 26/3/1 25/3/1
f 28/3/1 26/3/1 27/3/1
f 31/3/1 30/3/1 29/3/1
f 32/3/1 30/3/1 31/3/1
f 35/3/1 34/3/1 33/3/1
f 36/3/1 34/3/1 35/3/1
f 39/3/1 38/3/1 37/3/1
f 40/3/1 38/3/1 39/3/1
f 43/3/1 42/3/1 41/3/1
f 44/3/1 42/3/1 43/3/1
f 47/1/1 46/1/1 45/1/1
f 48/1/1 46/1/1 47/1/1
f 51/3/1 50/3/1 49/3/1
f 52/3/1 50/3/1 51/3/1
f 55/3/1 54/3/1 53/3/1
f 56/3/1 54/3/1 55/3/1
f 59/1/1 58/1/1 57/1/1
f 60/1/1 58/1/1 59/1/1
f 63/1/1 62/1/1 61/1/1
f 64/1/1 62/1/1 63/1/1
f 67/3/1 66/3/1 65/3/1
f 68/3/1 66/3/1 67/3/1
f 71/3/1 70/3/1 69/3/1
f 72/3/1 70/3/1 71/3/1
f 75/3/1 74/3/1 73/3/1
f 76/3/1 74/3/1 75/3/1
f 79/3/1 78/3/1 77/3/1
f 80/3/1 78/3/1 79/3/1
f 83/3/1 82/3/1 81/3/1
f 84/3/1 82/3/1 83/3/1
f 87/1/1 86/1/1 85/1/1
f 88/1/1 86/1/1 87/1/1
f 91/1/1 90/1/1 89/1/1
f 92/1/1 90/1/1 91/1/1
f 95/1/1 94/1/1 93/1/1
f 96/1/1 94/1/1 95/1/1
f 99/3/1 98/3/1 97/3/1
f 100/3/1 98/3/1 99/3/1
f 101/1/1 100/1/1 99/1/1
f 102/1/1 100/1/1 101/1/1
f 105/1/1 104/1/1 103/1/1
f 106/1/1 104/1/1 105/1/1
f 109/3/1 108/3/1 107/3/1
f 110/3/1 108/3/1 109/3/1
f 113/1/1 112/1/1 111/1/1
f 114/1/1 112/1/1 113/1/1
f 115/3/1 114/3/1 113/3/1
f 116/3/1 114/3/1 115/3/1
f 119/3/1 118/3/1 117/3/1
f 120/3/1 118/3/1 119/3/1
f 123/3/1 122/3/1 121/3/1
f 124/3/1 122/3/1 123/3/1
f 127/3/1 126/3/1 125/3/1
f 128/3/1 126/3/1 127/3/1
f 131/3/1 130/3/1 129/3/1
f 132/3/1 130/3/1 131/3/1
f 133/3/2 134/3/2 135/3/2
f 135/3/2 134/3/2 136/3/2
f 137/3/2 138/3/2 139/3/2
f 139/3/2 138/3/2 140/3/2
f 141/3/2 142/3/2 143/3/2
f 143/3/2 142/3/2 144/3/2
f 145/3/2 146/3/2 147/3/2
f 147/3/2 146/3/2 148/3/2
f 149/1/2 150/1/2 151/1/2
f 151/1/2 150/1/2 152/1/2
f 151/3/2 152/3/2 153/3/2
f 153/3/2 152/3/2 154/3/2
f 155/3/2 156/3/2 157/3/2
f 157/3/2 156/3/2 158/3/2
f 157/1/2 158/1/2 159/1/2
f 159/1/2 158/1/2 160/1/2
f 161/1/2 162/1/2 163/1/2
f 163/1/2 162/1/2 164/1/2
f 165/3/2 166/3/2 167/3/2
f 167/3/2 166/3/2 168/3/2
f 169/1/2 170/1/2 171/1/2
f 171/1/2 170/1/2 172/1/2
f 173/1/2 174/1/2 175/1/2
f 175/1/2 174/1/2 176/1/2
f 177/3/2 178/3/2 179/3/2
f 179/3/2 178/3/2 180/3/2
f 181/1/2 182/1/2 183/1/2
f 183/1/2 182/1/2 184/1/2
f 185/3/2 186/3/2 187/3/2
f 187/3/2 186/3/2 188/3/2
f 189/1/2 190/1/2 191/1/2
f 191/1/2 190/1/2 192/1/2
f 193/1/2 194/1/2 195/1/2
f 195/1/2 194/1/2 196/1/2
f 197/3/2 198/3/2 199/3/2
f 199/3/2 198/3/2 200/3/2
f 201/3/2 202/3/2 203/3/2
f 203/3/2 202/3/2 204/3/2
f 205/1/2 206/1/2 207/1/2
f 207/1/2 206/1/2 208/1/2
f 209/3/2 210/3/2 211/3/2
f 211/3/2 210/3/2 212/3/2
f 213/3/2 214/3/2 215/3/2
f 215/3/2 214/3/2 216/3/2
f 217/3/2 218/3/2 219/3/2
f 219/3/2 218/3/2 220/3/2
f 221/3/2 222/3/2 223/3/2
f 223/3/2 222/3/2 224/3/2
f 225/3/2 226/3/2 227/3/2
f 227/3/2 226/3/2 228/3/2
f 229/3/2 230/3/2 231/3/2
f 231/3/2 230/3/2 232/3/2
f 233/3/2 234/3/2 235/3/2
f 235/3/2 234/3/2 236/3/2
f 237/3/2 238/3/2 239/3/2
f 239/3/2 238/3/2 240/3/2
f 250/3/3 242/3/3 241/3/3
f 251/3/3 242/3/3 250/3/3
f 254/3/3 250/3/3 249/3/3
f 255/3/3 250/3/3 254/3/3
f 256/3/3 252/3/3 251/3/3
f 257/3/3 252/3/3 256/3/3
f 260/3/3 254/3/3 253/3/3
f 261/3/3 254/3/3 260/3/3
f 262/3/3 258/3/3 257/3/3
f 263/3/3 258/3/3 262/3/3
f 266/3/3 260/3/3 259/3/3
f 267/3/3 260/3/3 266/3/3
f 269/1/3 263/1/3 262/1/3
f 270/3/3 264/3/3 263/3/3
f 270/1/3 263/1/3 269/1/3
f 271/3/3 264/3/3 270/3/3
f 274/3/3 266/3/3 265/3/3
f 275/1/3 267/1/3 266/1/3
f 275/3/3 266/3/3 274/3/3
f 276/1/3 267/1/3 275/1/3
f 279/1/3 269/1/3 268/1/3
f 280/1/3 269/1/3 279/1/3
f 281/3/3 272/3/3 271/3/3
f 282/3/3 272/3/3 281/3/3
f 285/2/3 244/2/3 243/2/3
f 286/2/3 244/2/3 285/2/3
f 287/2/3 246/2/3 245/2/3
f 288/2/3 246/2/3 287/2/3
f 289/2/3 248/2/3 247/2/3
f 290/2/3 248/2/3 289/2/3
f 291/3/3 274/3/3 273/3/3
f 292/1/3 277/1/3 276/1/3
f 293/1/3 277/1/3 292/1/3
f 294/1/3 279/1/3 278/1/3
f 295/1/3 279/1/3 294/1/3
f 296/3/3 288/3/3 287/3/3
f 296/3/3 286/3/3 285/3/3
f 296/3/3 291/3/3 290/3/3
f 296/3/3 290/3/3 289/3/3
f 296/3/3 285/3/3 284/3/3
f 296/3/3 287/3/3 286/3/3
f 296/3/3 289/3/3 288/3/3
f 297/3/3 274/3/3 291/3/3
f 297/3/3 291/3/3 296/3/3
f 299/1/3 294/1/3 293/1/3
f 300/1/3 294/1/3 299/1/3
f 302/3/3 274/3/3 297/3/3
f 303/3/3 274/3/3 302/3/3
f 305/1/3 299/1/3 298/1/3
f 306/1/3 299/1/3 305/1/3
f 307/1/3 301/1/3 300/1/3
f 308/1/3 301/1/3 307/1/3
f 311/3/3 283/3/3 282/3/3
f 312/3/3 283/3/3 311/3/3
f 313/3/3 304/3/3 303/3/3
f 314/1/3 305/1/3 304/1/3
f 314/3/3 304/3/3 313/3/3
f 315/1/3 305/1/3 314/1/3
f 316/1/3 309/1/3 308/1/3
f 317/1/3 309/1/3 316/1/3
f 319/3/3 311/3/3 310/3/3
f 320/3/3 311/3/3 319/3/3
f 321/3/3 315/3/3 314/3/3
f 322/3/3 315/3/3 321/3/3
f 324/1/3 318/1/3 317/1/3
f 325/3/3 319/3/3 318/3/3
f 325/1/3 318/1/3 324/1/3
f 326/3/3 319/3/3 325/3/3
f 327/3/3 323/3/3 322/3/3
f 328/3/3 323/3/3 327/3/3
f 331/3/3 325/3/3 324/3/3
f 332/3/3 325/3/3 331/3/3
f 333/3/3 329/3/3 328/3/3
f 334/3/3 329/3/3 333/3/3
f 335/3/3 331/3/3 330/3/3
f 336/3/3 331/3/3 335/3/3
f 337/3/3 335/3/3 334/3/3
f 338/3/3 335/3/3 337/3/3
f 339/3/4 340/3/4 348/3/4
f 348/3/4 340/3/4 349/3/4
f 347/3/4 348/3/4 352/3/4
f 352/3/4 348/3/4 353/3/4
f 349/3/4 350/3/4 354/3/4
f 354/3/4 350/3/4 355/3/4
f 351/3/4 352/3/4 358/3/4
f 358/3/4 352/3/4 359/3/4
f 355/3/4 356/3/4 360/3/4
f 360/3/4 356/3/4 361/3/4
f 357/3/4 358/3/4 364/3/4
f 364/3/4 358/3/4 365/3/4
f 360/1/4 361/1/4 367/1/4
f 361/3/4 362/3/4 368/3/4
f 367/1/4 361/1/4 368/1/4
f 368/3/4 362/3/4 369/3/4
f 363/3/4 364/3/4 372/3/4
f 364/1/4 365/1/4 373/1/4
f 372/3/4 364/3/4 373/3/4
f 373/1/4 365/1/4 374/1/4
f 366/1/4 367/1/4 377/1/4
f 377/1/4 367/1/4 378/1/4
f 369/3/4 370/3/4 379/3/4
f 379/3/4 370/3/4 380/3/4
f 341/2/4 342/2/4 383/2/4
f 383/2/4 342/2/4 384/2/4
f 343/2/4 344/2/4 385/2/4
f 385/2/4 344/2/4 386/2/4
f 345/2/4 346/2/4 387/2/4
f 387/2/4 346/2/4 388/2/4
f 371/3/4 372/3/4 389/3/4
f 374/1/4 375/1/4 390/1/4
f 390/1/4 375/1/4 391/1/4
f 376/1/4 377/1/4 392/1/4
f 392/1/4 377/1/4 393/1/4
f 385/3/4 386/3/4 394/3/4
f 383/3/4 384/3/4 394/3/4
f 388/3/4 389/3/4 394/3/4
f 387/3/4 388/3/4 394/3/4
f 382/3/4 383/3/4 394/3/4
f 384/3/4 385/3/4 394/3/4
f 386/3/4 387/3/4 394/3/4
f 389/3/4 372/3/4 395/3/4
f 394/3/4 389/3/4 395/3/4
f 391/1/4 392/1/4 397/1/4
f 397/1/4 392/1/4 398/1/4
f 395/3/4 372/3/4 400/3/4
f 400/3/4 372/3/4 401/3/4
f 396/1/4 397/1/4 403/1/4
f 403/1/4 397/1/4 404/1/4
f 398/1/4 399/1/4 405/1/4
f 405/1/4 399/1/4 406/1/4
f 380/3/4 381/3/4 409/3/4
f 409/3/4 381/3/4 410/3/4
f 401/3/4 402/3/4 411/3/4
f 402/1/4 403/1/4 412/1/4
f 411/3/4 402/3/4 412/3/4
f 412/1/4 403/1/4 413/1/4
f 406/1/4 407/1/4 414/1/4
f 414/1/4 407/1/4 415/1/4
f 408/3/4 409/3/4 417/3/4
f 417/3/4 409/3/4 418/3/4
f 412/3/4 413/3/4 419/3/4
f 419/3/4 413/3/4 420/3/4
f 415/1/4 416/1/4 422/1/4
f 416/3/4 417/3/4 423/3/4
f 422/1/4 416/1/4 423/1/4
f 423/3/4 417/3/4 424/3/4
f 420/3/4 421/3/4 425/3/4
f 425/3/4 421/3/4 426/3/4
f 422/3/4 423/3/4 429/3/4
f 429/3/4 423/3/4 430/3/4
f 426/3/4 427/3/4 431/3/4
f 431/3/4 427/3/4 432/3/4
f 428/3/4 429/3/4 433/3/4
f 433/3/4 429/3/4 434/3/4
f 432/3/4 433/3/4 435/3/4
f 435/3/4 433/3/4 436/3/4
f 439/3/5 438/3/5 437/3/5
f 440/3/5 438/3/5 439/3/5
f 443/2/5 442/2/5 441/2/5
f 444/2/5 442/2/5 443/2/5
f 447/2/5 446/2/5 445/2/5
f 448/2/5 446/2/5 447/2/5
f 451/2/5 450/2/5 449/2/5
f 452/2/5 450/2/5 451/2/5
f 457/3/5 454/3/5 453/3/5
f 458/3/5 454/3/5 457/3/5
f 459/3/5 456/3/5 455/3/5
f 460/3/5 456/3/5 459/3/5
f 465/3/5 462/3/5 461/3/5
f 466/3/5 462/3/5 465/3/5
f 467/3/5 464/3/5 463/3/5
f 468/3/5 464/3/5 467/3/5
f 473/3/5 470/3/5 469/3/5
f 474/3/5 470/3/5 473/3/5
f 475/3/5 472/3/5 471/3/5
f 476/3/5 472/3/5 475/3/5
f 485/3/5 478/3/5 477/3/5
f 486/3/5 478/3/5 485/3/5
f 487/1/5 480/1/5 479/1/5
f 488/1/5 480/1/5 487/1/5
f 489/1/5 482/1/5 481/1/5
f 490/1/5 482/1/5 489/1/5
f 491/3/5 484/3/5 483/3/5
f 492/3/5 484/3/5 491/3/5
f 499/3/5 494/3/5 493/3/5
f 500/3/5 494/3/5 499/3/5
f 501/1/5 496/1/5 495/1/5
f 502/1/5 496/1/5 501/1/5
f 503/3/5 498/3/5 497/3/5
f 504/3/5 498/3/5 503/3/5
f 513/3/5 506/3/5 505/3/5
f 514/3/5 506/3/5 513/3/5
f 515/1/5 508/1/5 507/1/5
f 516/1/5 508/1/5 515/1/5
f 517/1/5 510/1/5 509/1/5
f 518/1/5 510/1/5 517/1/5
f 519/3/5 512/3/5 511/3/5
f 520/3/5 512/3/5 519/3/5
f 529/3/5 522/3/5 521/3/5
f 530/3/5 522/3/5 529/3/5
f 531/1/5 524/1/5 523/1/5
f 532/1/5 524/1/5 531/1/5
f 533/1/5 526/1/5 525/1/5
f 534/1/5 526/1/5 533/1/5
f 535/3/5 528/3/5 527/3/5
f 536/3/5 528/3/5 535/3/5
f 543/3/5 538/3/5 537/3/5
f 544/1/5 539/1/5 538/1/5
f 544/3/5 538/3/5 543/3/5
f 545/1/5 539/1/5 544/1/5
f 546/1/5 541/1/5 540/1/5
f 547/3/5 542/3/5 541/3/5
f 547/1/5 541/1/5 546/1/5
f 548/3/5 542/3/5 547/3/5
f 553/3/5 550/3/5 549/3/5
f 554/3/5 550/3/5 553/3/5
f 555/3/5 552/3/5 551/3/5
f 556/3/5 552/3/5 555/3/5
f 559/3/5 558/3/5 557/3/5
f 560/3/5 558/3/5 559/3/5
f 561/2/6 562/2/6 563/2/6
f 563/2/6 562/2/6 564/2/6
f 565/2/6 566/2/6 567/2/6
f 567/2/6 566/2/6 568/2/6
f 569/2/6 570/2/6 571/2/6
f 571/2/6 570/2/6 572/2/6
f 573/3/6 574/3/6 575/3/6
f 575/3/6 574/3/6 576/3/6
f 577/3/6 578/3/6 583/3/6
f 578/1/6 579/1/6 584/1/6
f 583/3/6 578/3/6 584/3/6
f 584/1/6 579/1/6 585/1/6
f 580/1/6 581/1/6 586/1/6
f 581/3/6 582/3/6 587/3/6
f 586/1/6 581/1/6 587/1/6
f 587/3/6 582/3/6 588/3/6
f 589/3/6 590/3/6 597/3/6
f 597/3/6 590/3/6 598/3/6
f 591/1/6 592/1/6 599/1/6
f 599/1/6 592/1/6 600/1/6
f 593/1/6 594/1/6 601/1/6
f 601/1/6 594/1/6 602/1/6
f 595/3/6 596/3/6 603/3/6
f 603/3/6 596/3/6 604/3/6
f 605/3/6 606/3/6 611/3/6
f 611/3/6 606/3/6 612/3/6
f 607/1/6 608/1/6 613/1/6
f 613/1/6 608/1/6 614/1/6
f 609/3/6 610/3/6 615/3/6
f 615/3/6 610/3/6 616/3/6
f 617/3/6 618/3/6 625/3/6
f 625/3/6 618/3/6 626/3/6
f 619/1/6 620/1/6 627/1/6
f 627/1/6 620/1/6 628/1/6
f 621/1/6 622/1/6 629/1/6
f 629/1/6 622/1/6 630/1/6
f 623/3/6 624/3/6 631/3/6
f 631/3/6 624/3/6 632/3/6
f 633/3/6 634/3/6 641/3/6
f 641/3/6 634/3/6 642/3/6
f 635/1/6 636/1/6 643/1/6
f 643/1/6 636/1/6 644/1/6
f 637/1/6 638/1/6 645/1/6
f 645/1/6 638/1/6 646/1/6
f 639/3/6 640/3/6 647/3/6
f 647/3/6 640/3/6 648/3/6
f 649/3/6 650/3/6 653/3/6
f 653/3/6 650/3/6 654/3/6
f 651/3/6 652/3/6 655/3/6
f 655/3/6 652/3/6 656/3/6
f 657/3/6 658/3/6 661/3/6
f 661/3/6 658/3/6 662/3/6
f 659/3/6 660/3/6 663/3/6
f 663/3/6 660/3/6 664/3/6
f 665/3/6 666/3/6 669/3/6
f 669/3/6 666/3/6 670/3/6
f 667/3/6 668/3/6 671/3/6
f 671/3/6 668/3/6 672/3/6
f 673/3/6 674/3/6 675/3/6
f 675/3/6 674/3/6 676/3/6
